0
SECTION
2
HEADER
9
$INSUNITS
70
4
9
$ACADVER
1
AC1014
9
$HANDSEED
5
FFFF
0
ENDSEC
0
SECTION
2
TABLES
0
TABLE
2
VPORT
5
8
100
AcDbSymbolTable
0
ENDTAB
0
TABLE
2
LTYPE
5
5
100
AcDbSymbolTable
0
LTYPE
5
14
100
AcDbSymbolTableRecord
100
AcDbLinetypeTableRecord
2
BYBLOCK
70
0
0
LTYPE
5
15
100
AcDbSymbolTableRecord
100
AcDbLinetypeTableRecord
2
BYLAYER
70
0
0
ENDTAB
0
TABLE
2
LAYER
5
2
100
AcDbSymbolTable
70
2
0
LAYER
5
50
100
AcDbSymbolTableRecord
100
AcDbLayerTableRecord
2
0
70
0
6
CONTINUOUS
0
ENDTAB
0
TABLE
2
STYLE
5
3
100
AcDbSymbolTable
70
1
0
STYLE
5
11
100
AcDbSymbolTableRecord
100
AcDbTextStyleTableRecord
2
STANDARD
70
0
0
ENDTAB
0
TABLE
2
VIEW
5
6
100
AcDbSymbolTable
70
0
0
ENDTAB
0
TABLE
2
UCS
5
7
100
AcDbSymbolTable
70
0
0
ENDTAB
0
TABLE
2
APPID
5
9
100
AcDbSymbolTable
70
2
0
APPID
5
12
100
AcDbSymbolTableRecord
100
AcDbRegAppTableRecord
2
ACAD
70
0
0
ENDTAB
0
TABLE
2
DIMSTYLE
5
A
100
AcDbSymbolTable
70
1
0
ENDTAB
0
TABLE
2
BLOCK_RECORD
5
1
100
AcDbSymbolTable
70
1
0
BLOCK_RECORD
5
1F
100
AcDbSymbolTableRecord
100
AcDbBlockTableRecord
2
*MODEL_SPACE
0
BLOCK_RECORD
5
1B
100
AcDbSymbolTableRecord
100
AcDbBlockTableRecord
2
*PAPER_SPACE
0
ENDTAB
0
ENDSEC
0
SECTION
2
BLOCKS
0
BLOCK
5
20
100
AcDbEntity
100
AcDbBlockBegin
2
*MODEL_SPACE
0
ENDBLK
5
21
100
AcDbEntity
100
AcDbBlockEnd
0
BLOCK
5
1C
100
AcDbEntity
100
AcDbBlockBegin
2
*PAPER_SPACE
0
ENDBLK
5
1D
100
AcDbEntity
100
AcDbBlockEnd
0
ENDSEC
0
SECTION
2
ENTITIES
0
LINE
5
100
100
AcDbEntity
8
0
100
AcDbLine
10
107.50500006882773
20
-0.1999999934385642
30
0
11
-0.19999993117227888
21
-0.1999999934385642
31
0
0
LINE
5
101
100
AcDbEntity
8
0
100
AcDbLine
10
-0.19999993117227888
20
-0.1999999934385642
30
0
11
-0.19999993117228762
21
168.18500000656147
31
0
0
LINE
5
102
100
AcDbEntity
8
0
100
AcDbLine
10
-0.19999993117228762
20
168.18500000656147
30
0
11
107.50500006882773
21
168.18500000656147
31
0
0
LINE
5
103
100
AcDbEntity
8
0
100
AcDbLine
10
107.50500006882773
20
96.013726444707316
30
0
11
107.50500006882773
21
-0.1999999934385642
31
0
0
LWPOLYLINE
5
104
100
AcDbEntity
8
0
100
AcDbPolyline
90
8
70
1
43
0.0
10
0.80000006882769981
20
-2.6999999934385643
10
106.49500006882774
20
-2.6999999934385643
42
0.41421356237309648
10
109.99500006882772
20
0.80000000656145431
10
109.99500006882772
20
167.18500000656147
42
0.41421356237309209
10
106.49500006882775
20
170.68500000656147
10
0.80000006882771224
20
170.68500000656144
42
0.41421356237308971
10
-2.6999999311722878
20
167.18500000656147
10
-2.6999999311722784
20
0.80000000656143566
42
0.41421356237309359
0
CIRCLE
5
105
100
AcDbEntity
8
0
100
AcDbCircle
10
3.8100000688277254
20
103.50500000656143
30
0
40
2.5
210
0
220
0
230
1
0
CIRCLE
5
106
100
AcDbEntity
8
0
100
AcDbCircle
10
103.50500006882774
20
103.50500000656143
30
0
40
2.5
210
0
220
0
230
1
0
CIRCLE
5
107
100
AcDbEntity
8
0
100
AcDbCircle
10
103.50500006882774
20
3.8100000065614359
30
0
40
2.5
210
0
220
0
230
1
0
CIRCLE
5
108
100
AcDbEntity
8
0
100
AcDbCircle
10
3.8100000688277254
20
3.8100000065614359
30
0
40
2.5
210
0
220
0
230
1
0
CIRCLE
5
109
100
AcDbEntity
8
0
100
AcDbCircle
10
102.37474736782863
20
163.13008207001911
30
0
40
2.4999999999999885
210
0
220
0
230
1
0
LINE
5
110
100
AcDbEntity
8
0
100
AcDbLine
10
-0.18768948114467723
20
97.552548228330821
30
0
11
-0.18768948114467723
21
109.55254822833082
31
0
0
LINE
5
111
100
AcDbEntity
8
0
100
AcDbLine
10
107.50341263392659
20
109.51372644470732
30
0
11
107.50341263392659
21
97.513726444707316
31
0
0
LINE
5
112
100
AcDbEntity
8
0
100
AcDbLine
10
7.8002737660330066
20
-0.22067639084691448
30
0
11
-0.19972623396699474
21
-0.22067639084691448
31
0
0
LINE
5
113
100
AcDbEntity
8
0
100
AcDbLine
10
-0.19972623396699474
20
-0.22067639084691448
30
0
11
-0.19972623396699474
21
11.779323609153089
31
0
0
LINE
5
114
100
AcDbEntity
8
0
100
AcDbLine
10
107.50341263392659
20
97.513726444707316
30
0
11
107.50500006882773
21
96.013726444707316
31
0
0
LINE
5
115
100
AcDbEntity
8
0
100
AcDbLine
10
107.50341263392659
20
109.51372644470732
30
0
11
107.50500006882773
21
168.18500000656147
31
0
0
LWPOLYLINE
5
116
100
AcDbEntity
8
0
100
AcDbPolyline
90
7
70
1
43
0.0
10
107.30500006882772
20
6.5614358391030692e-09
10
107.30500006882772
20
96.013620615743633
10
107.3034126339266
20
97.513620615743619
10
107.3034126339998
20
109.51373185599229
10
107.30499465746956
20
167.98500000656148
10
6.8827712428724615e-08
20
167.98500000656148
10
6.8827716859232169e-08
20
6.5614358391030692e-09
0
LWPOLYLINE
5
117
100
AcDbEntity
8
0
100
AcDbPolyline
90
5
70
1
43
0.0
10
8.3002737660330066
20
-0.22067639084691448
10
-0.19972623396699474
20
-0.22067639084691448
10
-0.19972623396699474
20
10.279323609153085
10
6.3002737660330066
20
10.279323609153085
42
-0.41421356237309492
10
8.3002737660330066
20
8.2793236091530868
0
LINE
5
118
100
AcDbEntity
8
0
100
AcDbLine
10
107.50500006882773
20
-0.1999999934385642
30
0
11
99.005000068827727
21
-0.1999999934385642
31
0
0
LINE
5
119
100
AcDbEntity
8
0
100
AcDbLine
10
99.005000068827727
20
-0.1999999934385642
30
0
11
99.005000068827727
21
8.3000000065614383
31
0
0
LINE
5
120
100
AcDbEntity
8
0
100
AcDbLine
10
101.00500006882771
20
10.300000006561444
30
0
11
107.50500006882773
21
10.300000006561437
31
0
0
LINE
5
121
100
AcDbEntity
8
0
100
AcDbLine
10
107.50500006882773
20
10.300000006561437
30
0
11
107.50500006882773
21
-0.1999999934385642
31
0
0
LINE
5
122
100
AcDbEntity
8
0
100
AcDbLine
10
107.50500006882773
20
168.18500000656147
30
0
11
97.505000068827727
21
168.18500000656147
31
0
0
LINE
5
123
100
AcDbEntity
8
0
100
AcDbLine
10
97.505000068827727
20
168.18500000656147
30
0
11
97.505000068827727
21
160.18500000656147
31
0
0
LINE
5
124
100
AcDbEntity
8
0
100
AcDbLine
10
99.505000068827712
20
158.18500000656147
30
0
11
107.50500006882773
21
158.18500000656147
31
0
0
LINE
5
125
100
AcDbEntity
8
0
100
AcDbLine
10
107.50500006882773
20
158.18500000656147
30
0
11
107.50500006882773
21
168.18500000656147
31
0
0
LWPOLYLINE
5
126
100
AcDbEntity
8
0
100
AcDbPolyline
90
6
70
1
43
0.0
10
100.50341263392659
20
98.997793866677029
10
107.50341263392659
20
98.997793866677029
10
107.50341263392659
20
107.99779386667703
10
100.50341263392659
20
107.99779386667703
42
0.41421356237309503
10
98.503412633926587
20
105.99779386667704
10
98.503412633926587
20
100.99779386667703
42
0.41421356237309503
0
LWPOLYLINE
5
127
100
AcDbEntity
8
0
100
AcDbPolyline
90
6
70
1
43
0.0
10
6.8000000688277185
20
98.534378940577454
10
-0.19999993117228326
20
98.534378940577454
10
-0.19999993117228332
20
108.03437894057744
10
6.8000000688277176
20
108.03437894057744
42
-0.41421356237309698
10
8.8000000688277176
20
106.03437894057745
10
8.8000000688277229
20
100.53437894057744
42
-0.41421356237309664
0
ARC
5
128
100
AcDbEntity
8
0
100
AcDbCircle
10
99.505000068827712
20
160.18500000656147
30
0
40
1.9999999999999929
210
0
220
0
230
1
100
AcDbArc
50
180
51
270
0
ARC
5
129
100
AcDbEntity
8
0
100
AcDbCircle
10
101.00500006882771
20
8.300000006561449
30
0
40
1.999999999999994
210
0
220
-0
230
1
100
AcDbArc
50
90
51
180
0
ENDSEC
0
SECTION
2
OBJECTS
0
DICTIONARY
5
C
100
AcDbDictionary
3
ACAD_GROUP
350
D
3
ACAD_MLINESTYLE
350
17
0
DICTIONARY
5
D
100
AcDbDictionary
0
DICTIONARY
5
1A
330
C
100
AcDbDictionary
0
DICTIONARY
5
17
100
AcDbDictionary
0
ENDSEC
0
EOF
