0
SECTION
2
HEADER
9
$INSUNITS
70
4
9
$ACADVER
1
AC1014
9
$HANDSEED
5
FFFF
0
ENDSEC
0
SECTION
2
TABLES
0
TABLE
2
VPORT
5
8
100
AcDbSymbolTable
0
ENDTAB
0
TABLE
2
LTYPE
5
5
100
AcDbSymbolTable
0
LTYPE
5
14
100
AcDbSymbolTableRecord
100
AcDbLinetypeTableRecord
2
BYBLOCK
70
0
0
LTYPE
5
15
100
AcDbSymbolTableRecord
100
AcDbLinetypeTableRecord
2
BYLAYER
70
0
0
ENDTAB
0
TABLE
2
LAYER
5
2
100
AcDbSymbolTable
70
2
0
LAYER
5
50
100
AcDbSymbolTableRecord
100
AcDbLayerTableRecord
2
0
70
0
6
CONTINUOUS
0
ENDTAB
0
TABLE
2
STYLE
5
3
100
AcDbSymbolTable
70
1
0
STYLE
5
11
100
AcDbSymbolTableRecord
100
AcDbTextStyleTableRecord
2
STANDARD
70
0
0
ENDTAB
0
TABLE
2
VIEW
5
6
100
AcDbSymbolTable
70
0
0
ENDTAB
0
TABLE
2
UCS
5
7
100
AcDbSymbolTable
70
0
0
ENDTAB
0
TABLE
2
APPID
5
9
100
AcDbSymbolTable
70
2
0
APPID
5
12
100
AcDbSymbolTableRecord
100
AcDbRegAppTableRecord
2
ACAD
70
0
0
ENDTAB
0
TABLE
2
DIMSTYLE
5
A
100
AcDbSymbolTable
70
1
0
ENDTAB
0
TABLE
2
BLOCK_RECORD
5
1
100
AcDbSymbolTable
70
1
0
BLOCK_RECORD
5
1F
100
AcDbSymbolTableRecord
100
AcDbBlockTableRecord
2
*MODEL_SPACE
0
BLOCK_RECORD
5
1B
100
AcDbSymbolTableRecord
100
AcDbBlockTableRecord
2
*PAPER_SPACE
0
ENDTAB
0
ENDSEC
0
SECTION
2
BLOCKS
0
BLOCK
5
20
100
AcDbEntity
100
AcDbBlockBegin
2
*MODEL_SPACE
0
ENDBLK
5
21
100
AcDbEntity
100
AcDbBlockEnd
0
BLOCK
5
1C
100
AcDbEntity
100
AcDbBlockBegin
2
*PAPER_SPACE
0
ENDBLK
5
1D
100
AcDbEntity
100
AcDbBlockEnd
0
ENDSEC
0
SECTION
2
ENTITIES
0
LWPOLYLINE
5
100
100
AcDbEntity
8
0
100
AcDbPolyline
90
4
70
1
43
0.0
10
6.8827724630793341e-08
20
6.5614358391030692e-09
10
6.8827716859232169e-08
20
106.98500000656145
10
107.29500006882773
20
106.98500000656145
10
107.29500006882773
20
6.5614357003251985e-09
0
CIRCLE
5
101
100
AcDbEntity
8
0
100
AcDbCircle
10
68.070000068827724
20
13.335000006561437
30
0
40
0.42500000000000393
210
-3.0572374035368527e-78
220
-4.9303806576313249e-32
230
1
0
CIRCLE
5
102
100
AcDbEntity
8
0
100
AcDbCircle
10
68.580000068827729
20
72.390000006561451
30
0
40
0.44999999999999901
210
-3.0572374035368517e-78
220
-4.9303806576313238e-32
230
1
0
CIRCLE
5
103
100
AcDbEntity
8
0
100
AcDbCircle
10
71.120000068827736
20
72.390000006561451
30
0
40
0.44999999999999901
210
-3.0572374035368517e-78
220
-4.9303806576313238e-32
230
1
0
CIRCLE
5
104
100
AcDbEntity
8
0
100
AcDbCircle
10
73.660000068827728
20
72.390000006561451
30
0
40
0.44999999999999901
210
-3.0572374035368517e-78
220
-4.9303806576313238e-32
230
1
0
CIRCLE
5
105
100
AcDbEntity
8
0
100
AcDbCircle
10
76.200000068827734
20
72.390000006561451
30
0
40
0.44999999999999901
210
-3.0572374035368517e-78
220
-4.9303806576313238e-32
230
1
0
CIRCLE
5
106
100
AcDbEntity
8
0
100
AcDbCircle
10
78.740000068827726
20
64.770000006561446
30
0
40
0.44999999999999901
210
-3.0572374035368517e-78
220
-4.9303806576313238e-32
230
1
0
CIRCLE
5
107
100
AcDbEntity
8
0
100
AcDbCircle
10
81.280000068827718
20
64.770000006561446
30
0
40
0.44999999999999901
210
-3.0572374035368517e-78
220
-4.9303806576313238e-32
230
1
0
CIRCLE
5
108
100
AcDbEntity
8
0
100
AcDbCircle
10
83.82000006882771
20
64.770000006561446
30
0
40
0.44999999999999901
210
-3.0572374035368517e-78
220
-4.9303806576313238e-32
230
1
0
CIRCLE
5
109
100
AcDbEntity
8
0
100
AcDbCircle
10
86.360000068827731
20
64.770000006561446
30
0
40
0.44999999999999901
210
-3.0572374035368517e-78
220
-4.9303806576313238e-32
230
1
0
CIRCLE
5
110
100
AcDbEntity
8
0
100
AcDbCircle
10
57.150000068827723
20
36.830000006561434
30
0
40
0.40650000000000303
210
3.0572374035368522e-78
220
4.9303806576313238e-32
230
1
0
CIRCLE
5
111
100
AcDbEntity
8
0
100
AcDbCircle
10
95.301000068827733
20
34.188000006561438
30
0
40
0.7619999999999999
210
-3.0572374035368527e-78
220
-4.9303806576313249e-32
230
1
0
CIRCLE
5
112
100
AcDbEntity
8
0
100
AcDbCircle
10
100.27900006882773
20
34.188000006561438
30
0
40
0.7619999999999999
210
-3.0572374035368527e-78
220
-4.9303806576313249e-32
230
1
0
CIRCLE
5
113
100
AcDbEntity
8
0
100
AcDbCircle
10
81.915000068827737
20
33.020000006561439
30
0
40
0.40649999999999403
210
-3.0572374035368522e-78
220
-4.9303806576313238e-32
230
1
0
CIRCLE
5
114
100
AcDbEntity
8
0
100
AcDbCircle
10
81.915000068827737
20
30.480000006561436
30
0
40
0.40649999999999403
210
-3.0572374035368522e-78
220
-4.9303806576313238e-32
230
1
0
CIRCLE
5
115
100
AcDbEntity
8
0
100
AcDbCircle
10
76.835000068827725
20
33.020000006561439
30
0
40
0.50799999999999712
210
-3.0572374035368522e-78
220
-4.9303806576313238e-32
230
1
0
CIRCLE
5
116
100
AcDbEntity
8
0
100
AcDbCircle
10
71.755000068827727
20
57.78500000656144
30
0
40
0.40650000000000303
210
3.0572374035368522e-78
220
4.9303806576313238e-32
230
1
0
CIRCLE
5
117
100
AcDbEntity
8
0
100
AcDbCircle
10
78.105000068827735
20
56.515000006561436
30
0
40
0.40650000000000303
210
3.0572374035368522e-78
220
4.9303806576313238e-32
230
1
0
CIRCLE
5
118
100
AcDbEntity
8
0
100
AcDbCircle
10
78.105000068827735
20
59.055000006561436
30
0
40
0.40650000000000303
210
3.0572374035368522e-78
220
4.9303806576313238e-32
230
1
0
CIRCLE
5
119
100
AcDbEntity
8
0
100
AcDbCircle
10
62.230000068827721
20
64.770000006561446
30
0
40
0.49550000000000005
210
0
220
0
230
1
0
CIRCLE
5
120
100
AcDbEntity
8
0
100
AcDbCircle
10
57.150000068827723
20
64.770000006561446
30
0
40
0.49550000000000005
210
0
220
0
230
1
0
CIRCLE
5
121
100
AcDbEntity
8
0
100
AcDbCircle
10
52.070000068827731
20
64.770000006561446
30
0
40
0.49550000000000005
210
0
220
0
230
1
0
CIRCLE
5
122
100
AcDbEntity
8
0
100
AcDbCircle
10
49.530000068827732
20
72.390000006561451
30
0
40
0.49550000000000005
210
0
220
0
230
1
0
CIRCLE
5
123
100
AcDbEntity
8
0
100
AcDbCircle
10
54.610000068827731
20
72.390000006561451
30
0
40
0.49550000000000005
210
0
220
0
230
1
0
CIRCLE
5
124
100
AcDbEntity
8
0
100
AcDbCircle
10
59.690000068827729
20
72.390000006561451
30
0
40
0.49550000000000005
210
0
220
0
230
1
0
CIRCLE
5
125
100
AcDbEntity
8
0
100
AcDbCircle
10
64.770000068827727
20
72.390000006561451
30
0
40
0.49550000000000005
210
0
220
0
230
1
0
CIRCLE
5
126
100
AcDbEntity
8
0
100
AcDbCircle
10
78.740000068827726
20
50.165000006561442
30
0
40
0.40650000000000303
210
3.0572374035368522e-78
220
4.9303806576313238e-32
230
1
0
CIRCLE
5
127
100
AcDbEntity
8
0
100
AcDbCircle
10
40.640000068827725
20
59.690000006561441
30
0
40
0.40650000000000303
210
3.0572374035368522e-78
220
4.9303806576313238e-32
230
1
0
CIRCLE
5
128
100
AcDbEntity
8
0
100
AcDbCircle
10
43.180000068827731
20
59.690000006561441
30
0
40
0.40650000000000303
210
3.0572374035368522e-78
220
4.9303806576313238e-32
230
1
0
CIRCLE
5
129
100
AcDbEntity
8
0
100
AcDbCircle
10
74.295000068827733
20
44.450000006561439
30
0
40
0.40650000000000303
210
3.0572374035368522e-78
220
4.9303806576313238e-32
230
1
0
CIRCLE
5
130
100
AcDbEntity
8
0
100
AcDbCircle
10
40.640000068827725
20
54.610000006561435
30
0
40
0.40650000000000303
210
3.0572374035368522e-78
220
4.9303806576313238e-32
230
1
0
CIRCLE
5
131
100
AcDbEntity
8
0
100
AcDbCircle
10
43.180000068827731
20
54.610000006561435
30
0
40
0.40650000000000303
210
3.0572374035368522e-78
220
4.9303806576313238e-32
230
1
0
CIRCLE
5
132
100
AcDbEntity
8
0
100
AcDbCircle
10
81.990000068827712
20
94.130000006561431
30
0
40
1.5499999999999903
210
0
220
0
230
1
0
CIRCLE
5
133
100
AcDbEntity
8
0
100
AcDbCircle
10
46.050000068827721
20
95.550000006561433
30
0
40
0.44999999999999901
210
-3.0572374035368517e-78
220
-4.9303806576313238e-32
230
1
0
CIRCLE
5
134
100
AcDbEntity
8
0
100
AcDbCircle
10
51.570000068827724
20
95.550000006561433
30
0
40
0.44999999999999901
210
-3.0572374035368517e-78
220
-4.9303806576313238e-32
230
1
0
CIRCLE
5
135
100
AcDbEntity
8
0
100
AcDbCircle
10
57.090000068827734
20
95.550000006561433
30
0
40
0.44999999999999901
210
-3.0572374035368517e-78
220
-4.9303806576313238e-32
230
1
0
CIRCLE
5
136
100
AcDbEntity
8
0
100
AcDbCircle
10
62.610000068827731
20
95.550000006561433
30
0
40
0.44999999999999901
210
-3.0572374035368517e-78
220
-4.9303806576313238e-32
230
1
0
CIRCLE
5
137
100
AcDbEntity
8
0
100
AcDbCircle
10
68.130000068827727
20
95.550000006561433
30
0
40
0.44999999999999901
210
-3.0572374035368517e-78
220
-4.9303806576313238e-32
230
1
0
CIRCLE
5
138
100
AcDbEntity
8
0
100
AcDbCircle
10
73.650000068827737
20
95.550000006561433
30
0
40
0.44999999999999901
210
-3.0572374035368517e-78
220
-4.9303806576313238e-32
230
1
0
CIRCLE
5
139
100
AcDbEntity
8
0
100
AcDbCircle
10
44.670000068827733
20
92.71000000656143
30
0
40
0.44999999999999901
210
-3.0572374035368517e-78
220
-4.9303806576313238e-32
230
1
0
CIRCLE
5
140
100
AcDbEntity
8
0
100
AcDbCircle
10
50.190000068827729
20
92.71000000656143
30
0
40
0.44999999999999901
210
-3.0572374035368517e-78
220
-4.9303806576313238e-32
230
1
0
CIRCLE
5
141
100
AcDbEntity
8
0
100
AcDbCircle
10
55.710000068827732
20
92.71000000656143
30
0
40
0.44999999999999901
210
-3.0572374035368517e-78
220
-4.9303806576313238e-32
230
1
0
CIRCLE
5
142
100
AcDbEntity
8
0
100
AcDbCircle
10
61.230000068827728
20
92.71000000656143
30
0
40
0.44999999999999901
210
-3.0572374035368517e-78
220
-4.9303806576313238e-32
230
1
0
CIRCLE
5
143
100
AcDbEntity
8
0
100
AcDbCircle
10
66.750000068827731
20
92.71000000656143
30
0
40
0.44999999999999901
210
-3.0572374035368517e-78
220
-4.9303806576313238e-32
230
1
0
CIRCLE
5
144
100
AcDbEntity
8
0
100
AcDbCircle
10
72.270000068827727
20
92.71000000656143
30
0
40
0.44999999999999901
210
-3.0572374035368517e-78
220
-4.9303806576313238e-32
230
1
0
CIRCLE
5
145
100
AcDbEntity
8
0
100
AcDbCircle
10
8.8900000688277263
20
32.385000006561441
30
0
40
0.40649999999999997
210
0
220
0
230
1
0
CIRCLE
5
146
100
AcDbEntity
8
0
100
AcDbCircle
10
57.150000068827723
20
83.185000006561438
30
0
40
0.40650000000000303
210
3.0572374035368522e-78
220
4.9303806576313238e-32
230
1
0
CIRCLE
5
147
100
AcDbEntity
8
0
100
AcDbCircle
10
59.690000068827729
20
83.185000006561438
30
0
40
0.40650000000000303
210
3.0572374035368522e-78
220
4.9303806576313238e-32
230
1
0
CIRCLE
5
148
100
AcDbEntity
8
0
100
AcDbCircle
10
62.230000068827721
20
83.185000006561438
30
0
40
0.40650000000000303
210
3.0572374035368522e-78
220
4.9303806576313238e-32
230
1
0
CIRCLE
5
149
100
AcDbEntity
8
0
100
AcDbCircle
10
64.770000068827727
20
83.185000006561438
30
0
40
0.40650000000000303
210
3.0572374035368522e-78
220
4.9303806576313238e-32
230
1
0
CIRCLE
5
150
100
AcDbEntity
8
0
100
AcDbCircle
10
55.880000068827734
20
13.970000006561438
30
0
40
0.40650000000000303
210
3.0572374035368522e-78
220
4.9303806576313238e-32
230
1
0
CIRCLE
5
151
100
AcDbEntity
8
0
100
AcDbCircle
10
64.770000068827727
20
34.925000006561433
30
0
40
0.40650000000000303
210
3.0572374035368522e-78
220
4.9303806576313238e-32
230
1
0
CIRCLE
5
152
100
AcDbEntity
8
0
100
AcDbCircle
10
12.090000068827727
20
35.560000006561438
30
0
40
0.38099999999999995
210
-3.0572374035368527e-78
220
-4.9303806576313249e-32
230
1
0
CIRCLE
5
153
100
AcDbEntity
8
0
100
AcDbCircle
10
67.310000068827733
20
62.230000006561433
30
0
40
0.40650000000000303
210
3.0572374035368522e-78
220
4.9303806576313238e-32
230
1
0
CIRCLE
5
154
100
AcDbEntity
8
0
100
AcDbCircle
10
87.630000068827712
20
46.990000006561445
30
0
40
0.40649999999999403
210
-3.0572374035368522e-78
220
-4.9303806576313238e-32
230
1
0
CIRCLE
5
155
100
AcDbEntity
8
0
100
AcDbCircle
10
65.405000068827732
20
40.640000006561436
30
0
40
0.40650000000000303
210
3.0572374035368522e-78
220
4.9303806576313238e-32
230
1
0
CIRCLE
5
156
100
AcDbEntity
8
0
100
AcDbCircle
10
34.925000068827721
20
53.340000006561439
30
0
40
0.40649999999999903
210
0
220
0
230
1
0
CIRCLE
5
157
100
AcDbEntity
8
0
100
AcDbCircle
10
57.785000068827728
20
40.640000006561436
30
0
40
0.40650000000000303
210
3.0572374035368522e-78
220
4.9303806576313238e-32
230
1
0
CIRCLE
5
158
100
AcDbEntity
8
0
100
AcDbCircle
10
85.09000006882772
20
44.450000006561439
30
0
40
0.40649999999999403
210
-3.0572374035368522e-78
220
-4.9303806576313238e-32
230
1
0
CIRCLE
5
159
100
AcDbEntity
8
0
100
AcDbCircle
10
62.865000068827726
20
40.640000006561436
30
0
40
0.40650000000000303
210
3.0572374035368522e-78
220
4.9303806576313238e-32
230
1
0
CIRCLE
5
160
100
AcDbEntity
8
0
100
AcDbCircle
10
37.465000068827734
20
53.340000006561439
30
0
40
0.40649999999999903
210
0
220
0
230
1
0
CIRCLE
5
161
100
AcDbEntity
8
0
100
AcDbCircle
10
60.325000068827734
20
40.640000006561436
30
0
40
0.40650000000000303
210
3.0572374035368522e-78
220
4.9303806576313238e-32
230
1
0
CIRCLE
5
162
100
AcDbEntity
8
0
100
AcDbCircle
10
1.9050000688277247
20
40.005000006561446
30
0
40
0.40649999999999997
210
0
220
0
230
1
0
CIRCLE
5
163
100
AcDbEntity
8
0
100
AcDbCircle
10
5.0800000688277249
20
20.66000000656144
30
0
40
0.44999999999999996
210
0
220
-0
230
1
0
CIRCLE
5
164
100
AcDbEntity
8
0
100
AcDbCircle
10
83.300000068827714
20
20.150000006561438
30
0
40
0.50000000000000699
210
0
220
0
230
1
0
CIRCLE
5
165
100
AcDbEntity
8
0
100
AcDbCircle
10
80.760000068827722
20
20.150000006561438
30
0
40
0.50000000000000699
210
0
220
0
230
1
0
CIRCLE
5
166
100
AcDbEntity
8
0
100
AcDbCircle
10
78.22000006882773
20
20.150000006561438
30
0
40
0.49999999999999795
210
0
220
0
230
1
0
CIRCLE
5
167
100
AcDbEntity
8
0
100
AcDbCircle
10
75.680000068827738
20
20.150000006561438
30
0
40
0.49999999999999795
210
0
220
0
230
1
0
CIRCLE
5
168
100
AcDbEntity
8
0
100
AcDbCircle
10
73.140000068827732
20
20.150000006561438
30
0
40
0.49999999999999795
210
0
220
0
230
1
0
CIRCLE
5
169
100
AcDbEntity
8
0
100
AcDbCircle
10
70.600000068827725
20
20.150000006561438
30
0
40
0.49999999999999795
210
0
220
0
230
1
0
CIRCLE
5
170
100
AcDbEntity
8
0
100
AcDbCircle
10
68.060000068827733
20
20.150000006561438
30
0
40
0.49999999999999795
210
0
220
0
230
1
0
CIRCLE
5
171
100
AcDbEntity
8
0
100
AcDbCircle
10
65.520000068827727
20
20.150000006561438
30
0
40
0.49999999999999795
210
0
220
0
230
1
0
CIRCLE
5
172
100
AcDbEntity
8
0
100
AcDbCircle
10
62.980000068827728
20
20.150000006561438
30
0
40
0.49999999999999795
210
0
220
0
230
1
0
CIRCLE
5
173
100
AcDbEntity
8
0
100
AcDbCircle
10
60.440000068827729
20
20.150000006561438
30
0
40
0.49999999999999795
210
0
220
0
230
1
0
CIRCLE
5
174
100
AcDbEntity
8
0
100
AcDbCircle
10
57.900000068827723
20
20.150000006561438
30
0
40
0.49999999999999795
210
0
220
0
230
1
0
CIRCLE
5
175
100
AcDbEntity
8
0
100
AcDbCircle
10
55.360000068827731
20
20.150000006561438
30
0
40
0.49999999999999795
210
0
220
0
230
1
0
CIRCLE
5
176
100
AcDbEntity
8
0
100
AcDbCircle
10
52.820000068827724
20
20.150000006561438
30
0
40
0.49999999999999795
210
0
220
0
230
1
0
CIRCLE
5
177
100
AcDbEntity
8
0
100
AcDbCircle
10
50.280000068827732
20
20.150000006561438
30
0
40
0.49999999999999795
210
0
220
0
230
1
0
CIRCLE
5
178
100
AcDbEntity
8
0
100
AcDbCircle
10
47.740000068827726
20
20.150000006561438
30
0
40
0.49999999999999795
210
0
220
0
230
1
0
CIRCLE
5
179
100
AcDbEntity
8
0
100
AcDbCircle
10
45.200000068827734
20
20.150000006561438
30
0
40
0.49999999999999795
210
0
220
0
230
1
0
CIRCLE
5
180
100
AcDbEntity
8
0
100
AcDbCircle
10
42.660000068827728
20
20.150000006561438
30
0
40
0.49999999999999795
210
0
220
0
230
1
0
CIRCLE
5
181
100
AcDbEntity
8
0
100
AcDbCircle
10
40.120000068827721
20
20.150000006561438
30
0
40
0.49999999999999795
210
0
220
0
230
1
0
CIRCLE
5
182
100
AcDbEntity
8
0
100
AcDbCircle
10
37.580000068827729
20
20.150000006561438
30
0
40
0.49999999999999795
210
0
220
0
230
1
0
CIRCLE
5
183
100
AcDbEntity
8
0
100
AcDbCircle
10
35.040000068827723
20
20.150000006561438
30
0
40
0.49999999999999795
210
0
220
0
230
1
0
CIRCLE
5
184
100
AcDbEntity
8
0
100
AcDbCircle
10
35.560000068827733
20
69.85000000656143
30
0
40
0.17499999999999599
210
-2.1895288505075267e-47
220
-4.9303806576313238e-32
230
1
0
CIRCLE
5
185
100
AcDbEntity
8
0
100
AcDbCircle
10
54.610000068827731
20
27.940000006561441
30
0
40
0.17500000000000099
210
2.1895288505075267e-47
220
1.6192816040802098e-78
230
1
0
CIRCLE
5
186
100
AcDbEntity
8
0
100
AcDbCircle
10
103.50500006882771
20
3.8100000065614359
30
0
40
1.3969999999999902
210
-2.1895288505075267e-47
220
-4.9303806576313238e-32
230
1
0
CIRCLE
5
187
100
AcDbEntity
8
0
100
AcDbCircle
10
3.8100000688277245
20
103.50500000656143
30
0
40
1.3970000000000002
210
0
220
0
230
1
0
CIRCLE
5
188
100
AcDbEntity
8
0
100
AcDbCircle
10
22.225000068827725
20
37.465000006561439
30
0
40
0.38099999999999995
210
-3.0572374035368527e-78
220
-4.9303806576313249e-32
230
1
0
CIRCLE
5
189
100
AcDbEntity
8
0
100
AcDbCircle
10
29.210000068827728
20
30.480000006561436
30
0
40
0.38099999999999995
210
-3.0572374035368527e-78
220
-4.9303806576313249e-32
230
1
0
CIRCLE
5
190
100
AcDbEntity
8
0
100
AcDbCircle
10
24.130000068827727
20
41.275000006561442
30
0
40
0.381000000000005
210
-2.1895288505075267e-47
220
-1.6192816040802098e-78
230
1
0
CIRCLE
5
191
100
AcDbEntity
8
0
100
AcDbCircle
10
23.495000068827729
20
46.355000006561433
30
0
40
0.38099999999999995
210
-3.0572374035368527e-78
220
-4.9303806576313249e-32
230
1
0
CIRCLE
5
192
100
AcDbEntity
8
0
100
AcDbCircle
10
22.225000068827725
20
43.815000006561434
30
0
40
0.38099999999999995
210
-3.0572374035368527e-78
220
-4.9303806576313249e-32
230
1
0
CIRCLE
5
193
100
AcDbEntity
8
0
100
AcDbCircle
10
52.070000068827731
20
43.180000006561443
30
0
40
0.17500000000000099
210
2.1895288505075267e-47
220
1.6192816040802098e-78
230
1
0
CIRCLE
5
194
100
AcDbEntity
8
0
100
AcDbCircle
10
104.14000006882773
20
50.800000006561433
30
0
40
0.17500000000000099
210
2.1895288505075267e-47
220
1.6192816040802098e-78
230
1
0
CIRCLE
5
195
100
AcDbEntity
8
0
100
AcDbCircle
10
55.360000068827731
20
16.510000006561437
30
0
40
0.17500000000000099
210
2.1895288505075267e-47
220
1.6192816040802098e-78
230
1
0
CIRCLE
5
196
100
AcDbEntity
8
0
100
AcDbCircle
10
102.23500006882773
20
39.370000006561433
30
0
40
0.17500000000000099
210
2.1895288505075267e-47
220
1.6192816040802098e-78
230
1
0
CIRCLE
5
197
100
AcDbEntity
8
0
100
AcDbCircle
10
73.660000068827728
20
11.430000006561436
30
0
40
0.174999999999992
210
-2.1895288505075267e-47
220
-1.6192816040802098e-78
230
1
0
CIRCLE
5
198
100
AcDbEntity
8
0
100
AcDbCircle
10
102.87000006882772
20
41.910000006561432
30
0
40
0.38099999999999995
210
-3.0572374035368527e-78
220
-4.9303806576313249e-32
230
1
0
CIRCLE
5
199
100
AcDbEntity
8
0
100
AcDbCircle
10
70.485000068827731
20
43.815000006561434
30
0
40
0.17500000000000099
210
2.1895288505075267e-47
220
1.6192816040802098e-78
230
1
0
CIRCLE
5
200
100
AcDbEntity
8
0
100
AcDbCircle
10
62.865000068827726
20
12.065000006561437
30
0
40
0.38099999999999995
210
-3.0572374035368527e-78
220
-4.9303806576313249e-32
230
1
0
CIRCLE
5
201
100
AcDbEntity
8
0
100
AcDbCircle
10
49.530000068827732
20
43.180000006561443
30
0
40
0.38099999999999995
210
-3.0572374035368527e-78
220
-4.9303806576313249e-32
230
1
0
CIRCLE
5
202
100
AcDbEntity
8
0
100
AcDbCircle
10
67.945000068827724
20
43.815000006561434
30
0
40
0.38099999999999995
210
-3.0572374035368527e-78
220
-4.9303806576313249e-32
230
1
0
CIRCLE
5
203
100
AcDbEntity
8
0
100
AcDbCircle
10
29.210000068827728
20
35.560000006561438
30
0
40
0.38099999999999995
210
-3.0572374035368527e-78
220
-4.9303806576313249e-32
230
1
0
CIRCLE
5
204
100
AcDbEntity
8
0
100
AcDbCircle
10
37.465000068827734
20
33.655000006561437
30
0
40
0.38099999999999995
210
-3.0572374035368527e-78
220
-4.9303806576313249e-32
230
1
0
CIRCLE
5
205
100
AcDbEntity
8
0
100
AcDbCircle
10
31.115000068827726
20
33.655000006561437
30
0
40
0.38099999999999995
210
-3.0572374035368527e-78
220
-4.9303806576313249e-32
230
1
0
CIRCLE
5
206
100
AcDbEntity
8
0
100
AcDbCircle
10
67.945000068827724
20
50.800000006561433
30
0
40
0.38099999999999995
210
-3.0572374035368527e-78
220
-4.9303806576313249e-32
230
1
0
CIRCLE
5
207
100
AcDbEntity
8
0
100
AcDbCircle
10
49.530000068827732
20
52.705000006561434
30
0
40
0.38099999999999995
210
-3.0572374035368527e-78
220
-4.9303806576313249e-32
230
1
0
CIRCLE
5
208
100
AcDbEntity
8
0
100
AcDbCircle
10
62.865000068827726
20
4.4450000065614361
30
0
40
0.38099999999999995
210
-3.0572374035368527e-78
220
-4.9303806576313249e-32
230
1
0
CIRCLE
5
209
100
AcDbEntity
8
0
100
AcDbCircle
10
70.485000068827731
20
52.070000006561443
30
0
40
0.17500000000000099
210
2.1895288505075267e-47
220
1.6192816040802098e-78
230
1
0
CIRCLE
5
210
100
AcDbEntity
8
0
100
AcDbCircle
10
83.82000006882771
20
41.910000006561432
30
0
40
0.38099999999999995
210
-3.0572374035368527e-78
220
-4.9303806576313249e-32
230
1
0
CIRCLE
5
211
100
AcDbEntity
8
0
100
AcDbCircle
10
73.660000068827728
20
3.1750000065614357
30
0
40
0.174999999999992
210
-2.1895288505075267e-47
220
-1.6192816040802098e-78
230
1
0
CIRCLE
5
212
100
AcDbEntity
8
0
100
AcDbCircle
10
83.82000006882771
20
39.370000006561433
30
0
40
0.17500000000001803
210
2.1895288505075267e-47
220
1.6192816040802098e-78
230
1
0
CIRCLE
5
213
100
AcDbEntity
8
0
100
AcDbCircle
10
37.465000068827734
20
16.510000006561437
30
0
40
0.174999999999992
210
-2.1895288505075267e-47
220
-1.6192816040802098e-78
230
1
0
CIRCLE
5
214
100
AcDbEntity
8
0
100
AcDbCircle
10
90.805000068827724
20
50.800000006561433
30
0
40
0.17500000000000099
210
2.1895288505075267e-47
220
1.6192816040802098e-78
230
1
0
CIRCLE
5
215
100
AcDbEntity
8
0
100
AcDbCircle
10
52.070000068827731
20
50.800000006561433
30
0
40
0.17500000000000099
210
2.1895288505075267e-47
220
1.6192816040802098e-78
230
1
0
CIRCLE
5
216
100
AcDbEntity
8
0
100
AcDbCircle
10
41.27500006882773
20
43.815000006561434
30
0
40
0.38099999999999995
210
-3.0572374035368527e-78
220
-4.9303806576313249e-32
230
1
0
CIRCLE
5
217
100
AcDbEntity
8
0
100
AcDbCircle
10
41.27500006882773
20
46.355000006561433
30
0
40
0.38099999999999995
210
-3.0572374035368527e-78
220
-4.9303806576313249e-32
230
1
0
CIRCLE
5
218
100
AcDbEntity
8
0
100
AcDbCircle
10
45.085000068827732
20
41.275000006561442
30
0
40
0.38099999999999995
210
-3.0572374035368527e-78
220
-4.9303806576313249e-32
230
1
0
CIRCLE
5
219
100
AcDbEntity
8
0
100
AcDbCircle
10
54.610000068827731
20
30.480000006561436
30
0
40
0.38099999999999995
210
-3.0572374035368527e-78
220
-4.9303806576313249e-32
230
1
0
CIRCLE
5
220
100
AcDbEntity
8
0
100
AcDbCircle
10
52.705000068827729
20
37.465000006561439
30
0
40
0.38099999999999995
210
-3.0572374035368527e-78
220
-4.9303806576313249e-32
230
1
0
CIRCLE
5
221
100
AcDbEntity
8
0
100
AcDbCircle
10
103.50500006882771
20
103.50500000656143
30
0
40
1.3969999999999902
210
-2.1895288505075267e-47
220
-4.9303806576313238e-32
230
1
0
CIRCLE
5
222
100
AcDbEntity
8
0
100
AcDbCircle
10
3.8100000688277245
20
3.8100000065614359
30
0
40
1.3970000000000002
210
0
220
0
230
1
0
CIRCLE
5
223
100
AcDbEntity
8
0
100
AcDbCircle
10
29.210000068827728
20
27.940000006561441
30
0
40
0.17500000000000099
210
2.1895288505075267e-47
220
1.6192816040802098e-78
230
1
0
CIRCLE
5
224
100
AcDbEntity
8
0
100
AcDbCircle
10
35.560000068827733
20
80.010000006561455
30
0
40
0.17499999999999599
210
-2.1895288505075267e-47
220
-4.9303806576313238e-32
230
1
0
CIRCLE
5
225
100
AcDbEntity
8
0
100
AcDbCircle
10
35.040000068827723
20
22.690000006561437
30
0
40
0.49999999999999795
210
0
220
0
230
1
0
CIRCLE
5
226
100
AcDbEntity
8
0
100
AcDbCircle
10
37.580000068827729
20
22.690000006561437
30
0
40
0.49999999999999795
210
0
220
0
230
1
0
CIRCLE
5
227
100
AcDbEntity
8
0
100
AcDbCircle
10
40.120000068827721
20
22.690000006561437
30
0
40
0.49999999999999795
210
0
220
0
230
1
0
CIRCLE
5
228
100
AcDbEntity
8
0
100
AcDbCircle
10
42.660000068827728
20
22.690000006561437
30
0
40
0.49999999999999795
210
0
220
0
230
1
0
CIRCLE
5
229
100
AcDbEntity
8
0
100
AcDbCircle
10
45.200000068827734
20
22.690000006561437
30
0
40
0.49999999999999795
210
0
220
0
230
1
0
CIRCLE
5
230
100
AcDbEntity
8
0
100
AcDbCircle
10
47.740000068827726
20
22.690000006561437
30
0
40
0.49999999999999795
210
0
220
0
230
1
0
CIRCLE
5
231
100
AcDbEntity
8
0
100
AcDbCircle
10
50.280000068827732
20
22.690000006561437
30
0
40
0.49999999999999795
210
0
220
0
230
1
0
CIRCLE
5
232
100
AcDbEntity
8
0
100
AcDbCircle
10
52.820000068827724
20
22.690000006561437
30
0
40
0.49999999999999795
210
0
220
0
230
1
0
CIRCLE
5
233
100
AcDbEntity
8
0
100
AcDbCircle
10
55.360000068827731
20
22.690000006561437
30
0
40
0.49999999999999795
210
0
220
0
230
1
0
CIRCLE
5
234
100
AcDbEntity
8
0
100
AcDbCircle
10
57.900000068827723
20
22.690000006561437
30
0
40
0.49999999999999795
210
0
220
0
230
1
0
CIRCLE
5
235
100
AcDbEntity
8
0
100
AcDbCircle
10
60.440000068827729
20
22.690000006561437
30
0
40
0.49999999999999795
210
0
220
0
230
1
0
CIRCLE
5
236
100
AcDbEntity
8
0
100
AcDbCircle
10
62.980000068827728
20
22.690000006561437
30
0
40
0.49999999999999795
210
0
220
0
230
1
0
CIRCLE
5
237
100
AcDbEntity
8
0
100
AcDbCircle
10
65.520000068827727
20
22.690000006561437
30
0
40
0.49999999999999795
210
0
220
0
230
1
0
CIRCLE
5
238
100
AcDbEntity
8
0
100
AcDbCircle
10
68.060000068827733
20
22.690000006561437
30
0
40
0.49999999999999795
210
0
220
0
230
1
0
CIRCLE
5
239
100
AcDbEntity
8
0
100
AcDbCircle
10
70.600000068827725
20
22.690000006561437
30
0
40
0.49999999999999795
210
0
220
0
230
1
0
CIRCLE
5
240
100
AcDbEntity
8
0
100
AcDbCircle
10
73.140000068827732
20
22.690000006561437
30
0
40
0.49999999999999795
210
0
220
0
230
1
0
CIRCLE
5
241
100
AcDbEntity
8
0
100
AcDbCircle
10
75.680000068827738
20
22.690000006561437
30
0
40
0.49999999999999795
210
0
220
0
230
1
0
CIRCLE
5
242
100
AcDbEntity
8
0
100
AcDbCircle
10
78.22000006882773
20
22.690000006561437
30
0
40
0.49999999999999795
210
0
220
0
230
1
0
CIRCLE
5
243
100
AcDbEntity
8
0
100
AcDbCircle
10
80.760000068827722
20
22.690000006561437
30
0
40
0.50000000000000699
210
0
220
0
230
1
0
CIRCLE
5
244
100
AcDbEntity
8
0
100
AcDbCircle
10
83.300000068827714
20
22.690000006561437
30
0
40
0.50000000000000699
210
0
220
0
230
1
0
CIRCLE
5
245
100
AcDbEntity
8
0
100
AcDbCircle
10
5.0800000688277249
20
25.060000006561438
30
0
40
0.44999999999999996
210
0
220
-0
230
1
0
CIRCLE
5
246
100
AcDbEntity
8
0
100
AcDbCircle
10
9.5250000688277261
20
40.005000006561446
30
0
40
0.40649999999999997
210
0
220
0
230
1
0
CIRCLE
5
247
100
AcDbEntity
8
0
100
AcDbCircle
10
60.325000068827734
20
48.260000006561441
30
0
40
0.40650000000000303
210
3.0572374035368522e-78
220
4.9303806576313238e-32
230
1
0
CIRCLE
5
248
100
AcDbEntity
8
0
100
AcDbCircle
10
37.465000068827734
20
60.960000006561437
30
0
40
0.40649999999999903
210
0
220
0
230
1
0
CIRCLE
5
249
100
AcDbEntity
8
0
100
AcDbCircle
10
62.865000068827726
20
48.260000006561441
30
0
40
0.40650000000000303
210
3.0572374035368522e-78
220
4.9303806576313238e-32
230
1
0
CIRCLE
5
250
100
AcDbEntity
8
0
100
AcDbCircle
10
77.47000006882773
20
44.450000006561439
30
0
40
0.40650000000000303
210
3.0572374035368522e-78
220
4.9303806576313238e-32
230
1
0
CIRCLE
5
251
100
AcDbEntity
8
0
100
AcDbCircle
10
57.785000068827728
20
48.260000006561441
30
0
40
0.40650000000000303
210
3.0572374035368522e-78
220
4.9303806576313238e-32
230
1
0
CIRCLE
5
252
100
AcDbEntity
8
0
100
AcDbCircle
10
34.925000068827721
20
60.960000006561437
30
0
40
0.40649999999999903
210
0
220
0
230
1
0
CIRCLE
5
253
100
AcDbEntity
8
0
100
AcDbCircle
10
65.405000068827732
20
48.260000006561441
30
0
40
0.40650000000000303
210
3.0572374035368522e-78
220
4.9303806576313238e-32
230
1
0
CIRCLE
5
254
100
AcDbEntity
8
0
100
AcDbCircle
10
87.630000068827712
20
54.610000006561435
30
0
40
0.40649999999999403
210
-3.0572374035368522e-78
220
-4.9303806576313238e-32
230
1
0
CIRCLE
5
255
100
AcDbEntity
8
0
100
AcDbCircle
10
67.310000068827733
20
54.610000006561435
30
0
40
0.40650000000000303
210
3.0572374035368522e-78
220
4.9303806576313238e-32
230
1
0
CIRCLE
5
256
100
AcDbEntity
8
0
100
AcDbCircle
10
64.770000068827727
20
27.305000006561436
30
0
40
0.40650000000000303
210
3.0572374035368522e-78
220
4.9303806576313238e-32
230
1
0
CIRCLE
5
257
100
AcDbEntity
8
0
100
AcDbCircle
10
63.500000068827731
20
13.970000006561438
30
0
40
0.40650000000000303
210
3.0572374035368522e-78
220
4.9303806576313238e-32
230
1
0
CIRCLE
5
258
100
AcDbEntity
8
0
100
AcDbCircle
10
64.770000068827727
20
75.565000006561434
30
0
40
0.40650000000000303
210
3.0572374035368522e-78
220
4.9303806576313238e-32
230
1
0
CIRCLE
5
259
100
AcDbEntity
8
0
100
AcDbCircle
10
62.230000068827721
20
75.565000006561434
30
0
40
0.40650000000000303
210
3.0572374035368522e-78
220
4.9303806576313238e-32
230
1
0
CIRCLE
5
260
100
AcDbEntity
8
0
100
AcDbCircle
10
59.690000068827729
20
75.565000006561434
30
0
40
0.40650000000000303
210
3.0572374035368522e-78
220
4.9303806576313238e-32
230
1
0
CIRCLE
5
261
100
AcDbEntity
8
0
100
AcDbCircle
10
57.150000068827723
20
75.565000006561434
30
0
40
0.40650000000000303
210
3.0572374035368522e-78
220
4.9303806576313238e-32
230
1
0
CIRCLE
5
262
100
AcDbEntity
8
0
100
AcDbCircle
10
8.8900000688277263
20
34.925000006561433
30
0
40
0.40649999999999997
210
0
220
0
230
1
0
CIRCLE
5
263
100
AcDbEntity
8
0
100
AcDbCircle
10
75.030000068827732
20
92.71000000656143
30
0
40
0.44999999999999901
210
-3.0572374035368517e-78
220
-4.9303806576313238e-32
230
1
0
CIRCLE
5
264
100
AcDbEntity
8
0
100
AcDbCircle
10
69.510000068827736
20
92.71000000656143
30
0
40
0.44999999999999901
210
-3.0572374035368517e-78
220
-4.9303806576313238e-32
230
1
0
CIRCLE
5
265
100
AcDbEntity
8
0
100
AcDbCircle
10
63.990000068827733
20
92.71000000656143
30
0
40
0.44999999999999901
210
-3.0572374035368517e-78
220
-4.9303806576313238e-32
230
1
0
CIRCLE
5
266
100
AcDbEntity
8
0
100
AcDbCircle
10
58.47000006882773
20
92.71000000656143
30
0
40
0.44999999999999901
210
-3.0572374035368517e-78
220
-4.9303806576313238e-32
230
1
0
CIRCLE
5
267
100
AcDbEntity
8
0
100
AcDbCircle
10
52.950000068827734
20
92.71000000656143
30
0
40
0.44999999999999901
210
-3.0572374035368517e-78
220
-4.9303806576313238e-32
230
1
0
CIRCLE
5
268
100
AcDbEntity
8
0
100
AcDbCircle
10
47.430000068827731
20
92.71000000656143
30
0
40
0.44999999999999901
210
-3.0572374035368517e-78
220
-4.9303806576313238e-32
230
1
0
CIRCLE
5
269
100
AcDbEntity
8
0
100
AcDbCircle
10
41.910000068827728
20
92.71000000656143
30
0
40
0.44999999999999901
210
-3.0572374035368517e-78
220
-4.9303806576313238e-32
230
1
0
CIRCLE
5
270
100
AcDbEntity
8
0
100
AcDbCircle
10
70.890000068827732
20
95.550000006561433
30
0
40
0.44999999999999901
210
-3.0572374035368517e-78
220
-4.9303806576313238e-32
230
1
0
CIRCLE
5
271
100
AcDbEntity
8
0
100
AcDbCircle
10
65.370000068827736
20
95.550000006561433
30
0
40
0.44999999999999901
210
-3.0572374035368517e-78
220
-4.9303806576313238e-32
230
1
0
CIRCLE
5
272
100
AcDbEntity
8
0
100
AcDbCircle
10
59.850000068827725
20
95.550000006561433
30
0
40
0.44999999999999901
210
-3.0572374035368517e-78
220
-4.9303806576313238e-32
230
1
0
CIRCLE
5
273
100
AcDbEntity
8
0
100
AcDbCircle
10
54.330000068827722
20
95.550000006561433
30
0
40
0.44999999999999901
210
-3.0572374035368517e-78
220
-4.9303806576313238e-32
230
1
0
CIRCLE
5
274
100
AcDbEntity
8
0
100
AcDbCircle
10
48.810000068827726
20
95.550000006561433
30
0
40
0.44999999999999901
210
-3.0572374035368517e-78
220
-4.9303806576313238e-32
230
1
0
CIRCLE
5
275
100
AcDbEntity
8
0
100
AcDbCircle
10
43.290000068827723
20
95.550000006561433
30
0
40
0.44999999999999901
210
-3.0572374035368517e-78
220
-4.9303806576313238e-32
230
1
0
CIRCLE
5
276
100
AcDbEntity
8
0
100
AcDbCircle
10
34.950000068827734
20
94.130000006561431
30
0
40
1.5500000000000003
210
0
220
0
230
1
0
CIRCLE
5
277
100
AcDbEntity
8
0
100
AcDbCircle
10
41.910000068827728
20
52.705000006561434
30
0
40
0.40650000000000303
210
3.0572374035368522e-78
220
4.9303806576313238e-32
230
1
0
CIRCLE
5
278
100
AcDbEntity
8
0
100
AcDbCircle
10
73.025000068827737
20
42.545000006561438
30
0
40
0.40650000000000303
210
3.0572374035368522e-78
220
4.9303806576313238e-32
230
1
0
CIRCLE
5
279
100
AcDbEntity
8
0
100
AcDbCircle
10
75.565000068827729
20
42.545000006561438
30
0
40
0.40650000000000303
210
3.0572374035368522e-78
220
4.9303806576313238e-32
230
1
0
CIRCLE
5
280
100
AcDbEntity
8
0
100
AcDbCircle
10
41.910000068827728
20
57.78500000656144
30
0
40
0.40650000000000303
210
3.0572374035368522e-78
220
4.9303806576313238e-32
230
1
0
CIRCLE
5
281
100
AcDbEntity
8
0
100
AcDbCircle
10
77.47000006882773
20
48.260000006561441
30
0
40
0.40650000000000303
210
3.0572374035368522e-78
220
4.9303806576313238e-32
230
1
0
CIRCLE
5
282
100
AcDbEntity
8
0
100
AcDbCircle
10
80.010000068827736
20
48.260000006561441
30
0
40
0.40649999999999403
210
-3.0572374035368522e-78
220
-4.9303806576313238e-32
230
1
0
CIRCLE
5
283
100
AcDbEntity
8
0
100
AcDbCircle
10
62.230000068827721
20
72.390000006561451
30
0
40
0.49550000000000005
210
0
220
0
230
1
0
CIRCLE
5
284
100
AcDbEntity
8
0
100
AcDbCircle
10
57.150000068827723
20
72.390000006561451
30
0
40
0.49550000000000005
210
0
220
0
230
1
0
CIRCLE
5
285
100
AcDbEntity
8
0
100
AcDbCircle
10
52.070000068827731
20
72.390000006561451
30
0
40
0.49550000000000005
210
0
220
0
230
1
0
CIRCLE
5
286
100
AcDbEntity
8
0
100
AcDbCircle
10
49.530000068827732
20
64.770000006561446
30
0
40
0.49550000000000005
210
0
220
0
230
1
0
CIRCLE
5
287
100
AcDbEntity
8
0
100
AcDbCircle
10
54.610000068827731
20
64.770000006561446
30
0
40
0.49550000000000005
210
0
220
0
230
1
0
CIRCLE
5
288
100
AcDbEntity
8
0
100
AcDbCircle
10
59.690000068827729
20
64.770000006561446
30
0
40
0.49550000000000005
210
0
220
0
230
1
0
CIRCLE
5
289
100
AcDbEntity
8
0
100
AcDbCircle
10
64.770000068827727
20
64.770000006561446
30
0
40
0.49550000000000005
210
0
220
0
230
1
0
CIRCLE
5
290
100
AcDbEntity
8
0
100
AcDbCircle
10
78.105000068827735
20
53.975000006561444
30
0
40
0.40650000000000303
210
3.0572374035368522e-78
220
4.9303806576313238e-32
230
1
0
CIRCLE
5
291
100
AcDbEntity
8
0
100
AcDbCircle
10
73.025000068827737
20
59.690000006561441
30
0
40
0.40650000000000303
210
3.0572374035368522e-78
220
4.9303806576313238e-32
230
1
0
CIRCLE
5
292
100
AcDbEntity
8
0
100
AcDbCircle
10
70.485000068827731
20
59.690000006561441
30
0
40
0.40650000000000303
210
3.0572374035368522e-78
220
4.9303806576313238e-32
230
1
0
CIRCLE
5
293
100
AcDbEntity
8
0
100
AcDbCircle
10
69.215000068827734
20
33.020000006561439
30
0
40
0.50799999999999712
210
-3.0572374035368522e-78
220
-4.9303806576313238e-32
230
1
0
CIRCLE
5
294
100
AcDbEntity
8
0
100
AcDbCircle
10
83.82000006882771
20
31.750000006561439
30
0
40
0.40649999999999403
210
-3.0572374035368522e-78
220
-4.9303806576313238e-32
230
1
0
CIRCLE
5
295
100
AcDbEntity
8
0
100
AcDbCircle
10
100.27900006882773
20
21.692000006561436
30
0
40
0.7619999999999999
210
-3.0572374035368527e-78
220
-4.9303806576313249e-32
230
1
0
CIRCLE
5
296
100
AcDbEntity
8
0
100
AcDbCircle
10
95.301000068827733
20
21.692000006561436
30
0
40
0.7619999999999999
210
-3.0572374035368527e-78
220
-4.9303806576313249e-32
230
1
0
CIRCLE
5
297
100
AcDbEntity
8
0
100
AcDbCircle
10
57.150000068827723
20
34.290000006561442
30
0
40
0.40650000000000303
210
3.0572374035368522e-78
220
4.9303806576313238e-32
230
1
0
CIRCLE
5
298
100
AcDbEntity
8
0
100
AcDbCircle
10
86.360000068827731
20
72.390000006561451
30
0
40
0.44999999999999901
210
-3.0572374035368517e-78
220
-4.9303806576313238e-32
230
1
0
CIRCLE
5
299
100
AcDbEntity
8
0
100
AcDbCircle
10
83.82000006882771
20
72.390000006561451
30
0
40
0.44999999999999901
210
-3.0572374035368517e-78
220
-4.9303806576313238e-32
230
1
0
CIRCLE
5
300
100
AcDbEntity
8
0
100
AcDbCircle
10
81.280000068827718
20
72.390000006561451
30
0
40
0.44999999999999901
210
-3.0572374035368517e-78
220
-4.9303806576313238e-32
230
1
0
CIRCLE
5
301
100
AcDbEntity
8
0
100
AcDbCircle
10
78.740000068827726
20
72.390000006561451
30
0
40
0.44999999999999901
210
-3.0572374035368517e-78
220
-4.9303806576313238e-32
230
1
0
CIRCLE
5
302
100
AcDbEntity
8
0
100
AcDbCircle
10
76.200000068827734
20
64.770000006561446
30
0
40
0.44999999999999901
210
-3.0572374035368517e-78
220
-4.9303806576313238e-32
230
1
0
CIRCLE
5
303
100
AcDbEntity
8
0
100
AcDbCircle
10
73.660000068827728
20
64.770000006561446
30
0
40
0.44999999999999901
210
-3.0572374035368517e-78
220
-4.9303806576313238e-32
230
1
0
CIRCLE
5
304
100
AcDbEntity
8
0
100
AcDbCircle
10
71.120000068827736
20
64.770000006561446
30
0
40
0.44999999999999901
210
-3.0572374035368517e-78
220
-4.9303806576313238e-32
230
1
0
CIRCLE
5
305
100
AcDbEntity
8
0
100
AcDbCircle
10
68.580000068827729
20
64.770000006561446
30
0
40
0.44999999999999901
210
-3.0572374035368517e-78
220
-4.9303806576313238e-32
230
1
0
CIRCLE
5
306
100
AcDbEntity
8
0
100
AcDbCircle
10
68.070000068827724
20
14.605000006561436
30
0
40
0.42500000000000393
210
-3.0572374035368527e-78
220
-4.9303806576313249e-32
230
1
0
CIRCLE
5
307
100
AcDbEntity
8
0
100
AcDbCircle
10
68.070000068827724
20
12.065000006561437
30
0
40
0.42500000000000393
210
-3.0572374035368527e-78
220
-4.9303806576313249e-32
230
1
0
ENDSEC
0
SECTION
2
OBJECTS
0
DICTIONARY
5
C
100
AcDbDictionary
3
ACAD_GROUP
350
D
3
ACAD_MLINESTYLE
350
17
0
DICTIONARY
5
D
100
AcDbDictionary
0
DICTIONARY
5
1A
330
C
100
AcDbDictionary
0
DICTIONARY
5
17
100
AcDbDictionary
0
ENDSEC
0
EOF
