0
SECTION
2
HEADER
9
$INSUNITS
70
4
9
$ACADVER
1
AC1014
9
$HANDSEED
5
FFFF
0
ENDSEC
0
SECTION
2
TABLES
0
TABLE
2
VPORT
5
8
100
AcDbSymbolTable
0
ENDTAB
0
TABLE
2
LTYPE
5
5
100
AcDbSymbolTable
0
LTYPE
5
14
100
AcDbSymbolTableRecord
100
AcDbLinetypeTableRecord
2
BYBLOCK
70
0
0
LTYPE
5
15
100
AcDbSymbolTableRecord
100
AcDbLinetypeTableRecord
2
BYLAYER
70
0
0
ENDTAB
0
TABLE
2
LAYER
5
2
100
AcDbSymbolTable
70
2
0
LAYER
5
50
100
AcDbSymbolTableRecord
100
AcDbLayerTableRecord
2
0
70
0
6
CONTINUOUS
0
ENDTAB
0
TABLE
2
STYLE
5
3
100
AcDbSymbolTable
70
1
0
STYLE
5
11
100
AcDbSymbolTableRecord
100
AcDbTextStyleTableRecord
2
STANDARD
70
0
0
ENDTAB
0
TABLE
2
VIEW
5
6
100
AcDbSymbolTable
70
0
0
ENDTAB
0
TABLE
2
UCS
5
7
100
AcDbSymbolTable
70
0
0
ENDTAB
0
TABLE
2
APPID
5
9
100
AcDbSymbolTable
70
2
0
APPID
5
12
100
AcDbSymbolTableRecord
100
AcDbRegAppTableRecord
2
ACAD
70
0
0
ENDTAB
0
TABLE
2
DIMSTYLE
5
A
100
AcDbSymbolTable
70
1
0
ENDTAB
0
TABLE
2
BLOCK_RECORD
5
1
100
AcDbSymbolTable
70
1
0
BLOCK_RECORD
5
1F
100
AcDbSymbolTableRecord
100
AcDbBlockTableRecord
2
*MODEL_SPACE
0
BLOCK_RECORD
5
1B
100
AcDbSymbolTableRecord
100
AcDbBlockTableRecord
2
*PAPER_SPACE
0
ENDTAB
0
ENDSEC
0
SECTION
2
BLOCKS
0
BLOCK
5
20
100
AcDbEntity
100
AcDbBlockBegin
2
*MODEL_SPACE
0
ENDBLK
5
21
100
AcDbEntity
100
AcDbBlockEnd
0
BLOCK
5
1C
100
AcDbEntity
100
AcDbBlockBegin
2
*PAPER_SPACE
0
ENDBLK
5
1D
100
AcDbEntity
100
AcDbBlockEnd
0
ENDSEC
0
SECTION
2
ENTITIES
0
LWPOLYLINE
5
100
100
AcDbEntity
8
0
100
AcDbPolyline
90
22
70
1
43
0.0
10
-39.499999999999979
20
28
10
29.289515692517863
20
28.000000000000007
10
29.289515692517863
20
23.5
10
34.510484307482145
20
23.5
10
34.510484307482145
20
28.000000000000007
10
39.499999999999979
20
28.000000000000004
42
-0.41421356237309853
10
42.5
20
24.999999999999993
10
42.500000000000007
20
-24.999999999999972
42
-0.41421356237309853
10
39.5
20
-27.999999999999989
10
-39.499999999999964
20
-28.000000000000021
42
-0.35639395869260421
10
-42.439387691339824
20
-25.599999999999991
10
-27.5
20
-25.599999999999994
10
-27.5
20
-12.399999999999995
10
-42.499999999999993
20
-12.399999999999983
10
-42.499999999999993
20
-7.5999999999999979
10
-27.5
20
-7.599999999999997
10
-27.5
20
5.6000000000000041
10
-42.499999999999993
20
5.6000000000000085
10
-42.499999999999993
20
9.7500000000000107
10
-23.299999999999997
20
9.7500000000000071
10
-23.299999999999997
20
25.750000000000011
10
-42.404737509655554
20
25.750000000000011
42
-0.34199871311964625
0
LWPOLYLINE
5
101
100
AcDbEntity
8
0
100
AcDbPolyline
90
4
70
1
43
0.0
10
40.300000000000011
20
10.250000000000002
10
37.300000000000004
20
10.250000000000002
10
37.300000000000011
20
-10.250000000000002
10
40.300000000000011
20
-10.250000000000002
0
LWPOLYLINE
5
102
100
AcDbEntity
8
0
100
AcDbPolyline
90
4
70
1
43
0.0
10
-3.9999999999999938
20
6.2500000000000018
10
-0.99999999999999223
20
6.2500000000000044
10
-0.99999999999999423
20
26.750000000000004
10
-3.9999999999999938
20
26.750000000000007
0
LWPOLYLINE
5
103
100
AcDbEntity
8
0
100
AcDbPolyline
90
4
70
1
43
0.0
10
-14.499999999999991
20
15.450000000000001
10
-7.4999999999999876
20
15.450000000000001
10
-7.4999999999999929
20
27.95000000000001
10
-14.499999999999993
20
27.950000000000003
0
LWPOLYLINE
5
104
100
AcDbEntity
8
0
100
AcDbPolyline
90
132
70
1
43
0.0
10
-15.35000000000001
20
-22.747299999999999
10
-15.35000000000001
20
-26.252700000000004
10
-15.348199999999999
20
-26.249999999999993
10
-14.848200000000006
20
-26.999999999999993
10
-13.434000000000017
20
-27
10
-12.936100000000001
20
-26.253149999999987
10
-12.438199999999998
20
-26.999999999999993
10
-11.019800000000009
20
-27
10
-10.521899999999997
20
-26.253149999999991
10
-10.024000000000001
20
-26.999999999999993
10
-8.6056000000000008
20
-27
10
-8.1076999999999959
20
-26.253149999999987
10
-7.609799999999999
20
-26.999999999999993
10
-6.1914000000000033
20
-26.999999999999996
10
-5.6934999999999993
20
-26.253149999999987
10
-5.1956000000000007
20
-26.999999999999993
10
-3.777200000000009
20
-27
10
-3.2792999999999974
20
-26.253149999999987
10
-2.7813999999999983
20
-26.999999999999993
10
-1.3629999999999995
20
-26.999999999999996
10
-0.86510000000000076
20
-26.253149999999987
10
-0.36720000000000336
20
-26.999999999999993
10
1.0511999999999926
20
-26.999999999999996
10
1.5491000000000013
20
-26.253149999999987
10
2.0469999999999984
20
-26.999999999999996
10
3.4653999999999963
20
-26.999999999999996
10
3.9633000000000029
20
-26.253149999999998
10
4.4611999999999972
20
-26.999999999999993
10
5.8795999999999884
20
-26.999999999999996
10
6.3775000000000013
20
-26.253149999999998
10
6.8753999999999982
20
-26.999999999999993
10
8.2938000000000009
20
-26.999999999999993
10
8.7917000000000005
20
-26.253149999999998
10
9.2895999999999965
20
-26.999999999999993
10
10.708000000000002
20
-26.999999999999993
10
11.205900000000002
20
-26.253149999999998
10
11.703799999999998
20
-26.999999999999993
10
13.122199999999999
20
-26.999999999999993
10
13.620100000000004
20
-26.253149999999987
10
14.118000000000002
20
-26.999999999999993
10
15.536400000000013
20
-26.999999999999993
10
16.034300000000002
20
-26.253149999999998
10
16.532199999999996
20
-26.999999999999996
10
17.950600000000009
20
-26.999999999999993
10
18.448500000000003
20
-26.253149999999998
10
18.946399999999993
20
-26.999999999999993
10
20.364799999999995
20
-26.999999999999996
10
20.862700000000004
20
-26.253149999999998
10
21.360600000000002
20
-26.999999999999993
10
22.778999999999993
20
-26.999999999999993
10
23.276900000000005
20
-26.253149999999998
10
23.774799999999999
20
-26.999999999999993
10
25.19319999999999
20
-26.999999999999993
10
25.691100000000002
20
-26.253149999999991
10
26.189
20
-26.999999999999993
10
27.607400000000016
20
-26.999999999999993
10
28.105300000000007
20
-26.253149999999998
10
28.603200000000001
20
-27
10
30.021599999999999
20
-26.999999999999993
10
30.519500000000008
20
-26.253149999999998
10
31.017399999999995
20
-26.999999999999993
10
32.435800000000008
20
-26.999999999999993
10
32.933699999999995
20
-26.253149999999998
10
33.431599999999989
20
-26.999999999999989
10
34.845800000000011
20
-26.999999999999993
10
35.345800000000011
20
-26.249999999999993
10
35.349999999999994
20
-26.256299999999975
10
35.349999999999994
20
-22.743700000000029
10
35.345800000000011
20
-22.75
10
34.845799999999997
20
-22
10
33.431600000000003
20
-22
10
32.933699999999995
20
-22.746850000000009
10
32.4358
20
-22
10
31.017400000000002
20
-22
10
30.519499999999997
20
-22.746849999999998
10
30.021600000000003
20
-22
10
28.603200000000001
20
-22
10
28.1053
20
-22.746850000000009
10
27.607400000000002
20
-22
10
26.189000000000007
20
-22
10
25.691100000000006
20
-22.746850000000009
10
25.193200000000001
20
-22
10
23.774800000000003
20
-22
10
23.276900000000001
20
-22.746849999999998
10
22.779000000000003
20
-22
10
21.360600000000005
20
-22.000000000000007
10
20.862700000000004
20
-22.746850000000002
10
20.364800000000006
20
-22
10
18.946400000000008
20
-22.000000000000007
10
18.448499999999996
20
-22.746849999999998
10
17.950600000000001
20
-22
10
16.532200000000003
20
-22.000000000000007
10
16.034300000000002
20
-22.746850000000009
10
15.536399999999999
20
-22
10
14.118000000000006
20
-22.000000000000007
10
13.620100000000001
20
-22.746850000000013
10
13.122200000000001
20
-22
10
11.703800000000006
20
-22.000000000000007
10
11.205899999999998
20
-22.746850000000002
10
10.708000000000002
20
-22
10
9.2896000000000019
20
-22.000000000000007
10
8.7916999999999952
20
-22.746849999999998
10
8.2938000000000009
20
-22
10
6.8754000000000035
20
-22.000000000000007
10
6.3775000000000004
20
-22.746850000000009
10
5.879599999999999
20
-22
10
4.4612000000000052
20
-22.000000000000007
10
3.963299999999998
20
-22.746850000000002
10
3.4654000000000007
20
-22
10
2.0470000000000139
20
-22.000000000000007
10
1.5490999999999977
20
-22.746849999999998
10
1.0512000000000021
20
-22
10
-0.36719999999998421
20
-22.000000000000007
10
-0.86510000000000076
20
-22.746850000000013
10
-1.3630000000000031
20
-22
10
-2.7813999999999823
20
-22.000000000000007
10
-3.2793000000000005
20
-22.746850000000009
10
-3.7772000000000014
20
-22
10
-5.1955999999999882
20
-22.000000000000007
10
-5.6934999999999993
20
-22.746850000000009
10
-6.1913999999999998
20
-22
10
-7.6097999999999804
20
-22.000000000000007
10
-8.1076999999999941
20
-22.746850000000009
10
-8.6055999999999973
20
-22
10
-10.023999999999994
20
-22.000000000000007
10
-10.521899999999997
20
-22.746849999999998
10
-11.019799999999996
20
-22
10
-12.438199999999984
20
-22.000000000000007
10
-12.936100000000001
20
-22.746850000000009
10
-13.434000000000001
20
-22
10
-14.848199999999977
20
-22.000000000000007
10
-15.348199999999999
20
-22.75
0
LWPOLYLINE
5
105
100
AcDbEntity
8
0
100
AcDbPolyline
90
4
70
1
43
0.0
10
17.900000000000009
20
18
10
17.900000000000009
20
24.499999999999996
10
3.1000000000000054
20
24.499999999999996
10
3.100000000000005
20
18
0
CIRCLE
5
106
100
AcDbEntity
8
0
100
AcDbCircle
10
-38.999999999999986
20
24.500000000000025
30
0
40
3.0999999999999956
210
0
220
0
230
-1
0
CIRCLE
5
107
100
AcDbEntity
8
0
100
AcDbCircle
10
19.000000000000025
20
24.500000000000011
30
0
40
3.0999999999999988
210
0
220
0
230
-1
0
CIRCLE
5
108
100
AcDbEntity
8
0
100
AcDbCircle
10
19.000000000000014
20
-24.5
30
0
40
3.0999999999999988
210
0
220
0
230
-1
0
CIRCLE
5
109
100
AcDbEntity
8
0
100
AcDbCircle
10
-38.999999999999993
20
-24.499999999999993
30
0
40
3.1000000000000023
210
0
220
0
230
-1
0
LWPOLYLINE
5
110
100
AcDbEntity
8
0
100
AcDbPolyline
90
22
70
1
43
0.0
10
-39.499999999999979
20
28
10
29.289515692517863
20
28.000000000000007
10
29.289515692517863
20
23.5
10
34.510484307482145
20
23.5
10
34.510484307482145
20
28.000000000000007
10
39.499999999999979
20
28.000000000000004
42
-0.41421356237309853
10
42.5
20
24.999999999999993
10
42.500000000000007
20
-24.999999999999972
42
-0.41421356237309853
10
39.499999999999986
20
-27.999999999999989
10
-39.499999999999972
20
-28.000000000000014
42
-0.35639395869260332
10
-42.439387691339824
20
-25.599999999999991
10
-27.5
20
-25.599999999999994
10
-27.5
20
-12.399999999999995
10
-42.499999999999993
20
-12.399999999999983
10
-42.499999999999993
20
-7.5999999999999979
10
-27.5
20
-7.599999999999997
10
-27.5
20
5.6000000000000041
10
-42.499999999999993
20
5.6000000000000085
10
-42.499999999999993
20
9.7500000000000107
10
-23.299999999999997
20
9.7500000000000071
10
-23.299999999999997
20
25.750000000000011
10
-42.404737509655554
20
25.750000000000011
42
-0.34199871311964641
0
LWPOLYLINE
5
111
100
AcDbEntity
8
0
100
AcDbPolyline
90
4
70
1
43
0.0
10
40.300000000000011
20
10.250000000000002
10
37.300000000000004
20
10.250000000000002
10
37.300000000000011
20
-10.250000000000002
10
40.300000000000011
20
-10.250000000000002
0
LWPOLYLINE
5
112
100
AcDbEntity
8
0
100
AcDbPolyline
90
4
70
1
43
0.0
10
-3.9999999999999938
20
6.2500000000000018
10
-0.99999999999999223
20
6.2500000000000044
10
-0.99999999999999423
20
26.750000000000004
10
-3.9999999999999938
20
26.750000000000007
0
LWPOLYLINE
5
113
100
AcDbEntity
8
0
100
AcDbPolyline
90
4
70
1
43
0.0
10
-14.499999999999991
20
15.450000000000001
10
-7.4999999999999876
20
15.450000000000001
10
-7.4999999999999929
20
27.95000000000001
10
-14.499999999999993
20
27.950000000000003
0
LWPOLYLINE
5
114
100
AcDbEntity
8
0
100
AcDbPolyline
90
132
70
1
43
0.0
10
-15.35000000000001
20
-22.747299999999999
10
-15.35000000000001
20
-26.252700000000004
10
-15.348199999999999
20
-26.249999999999993
10
-14.848200000000006
20
-26.999999999999993
10
-13.434000000000017
20
-27
10
-12.936100000000001
20
-26.253149999999987
10
-12.438199999999998
20
-26.999999999999993
10
-11.019800000000009
20
-27
10
-10.521899999999997
20
-26.253149999999991
10
-10.024000000000001
20
-26.999999999999993
10
-8.6056000000000008
20
-27
10
-8.1076999999999959
20
-26.253149999999987
10
-7.609799999999999
20
-26.999999999999993
10
-6.1914000000000033
20
-26.999999999999996
10
-5.6934999999999993
20
-26.253149999999987
10
-5.1956000000000007
20
-26.999999999999993
10
-3.777200000000009
20
-27
10
-3.2792999999999974
20
-26.253149999999987
10
-2.7813999999999983
20
-26.999999999999993
10
-1.3629999999999995
20
-26.999999999999996
10
-0.86510000000000076
20
-26.253149999999987
10
-0.36720000000000336
20
-26.999999999999993
10
1.0511999999999926
20
-26.999999999999996
10
1.5491000000000013
20
-26.253149999999987
10
2.0469999999999984
20
-26.999999999999996
10
3.4653999999999963
20
-26.999999999999996
10
3.9633000000000029
20
-26.253149999999998
10
4.4611999999999972
20
-26.999999999999993
10
5.8795999999999884
20
-26.999999999999996
10
6.3775000000000013
20
-26.253149999999998
10
6.8753999999999982
20
-26.999999999999993
10
8.2938000000000009
20
-26.999999999999993
10
8.7917000000000005
20
-26.253149999999998
10
9.2895999999999965
20
-26.999999999999993
10
10.708000000000002
20
-26.999999999999993
10
11.205900000000002
20
-26.253149999999998
10
11.703799999999998
20
-26.999999999999993
10
13.122199999999999
20
-26.999999999999993
10
13.620100000000004
20
-26.253149999999987
10
14.118000000000002
20
-26.999999999999993
10
15.536400000000013
20
-26.999999999999993
10
16.034300000000002
20
-26.253149999999998
10
16.532199999999996
20
-26.999999999999996
10
17.950600000000009
20
-26.999999999999993
10
18.448500000000003
20
-26.253149999999998
10
18.946399999999993
20
-26.999999999999993
10
20.364799999999995
20
-26.999999999999996
10
20.862700000000004
20
-26.253149999999998
10
21.360600000000002
20
-26.999999999999993
10
22.778999999999993
20
-26.999999999999993
10
23.276900000000005
20
-26.253149999999998
10
23.774799999999999
20
-26.999999999999993
10
25.19319999999999
20
-26.999999999999993
10
25.691100000000002
20
-26.253149999999991
10
26.189
20
-26.999999999999993
10
27.607400000000016
20
-26.999999999999993
10
28.105300000000007
20
-26.253149999999998
10
28.603200000000001
20
-27
10
30.021599999999999
20
-26.999999999999993
10
30.519500000000008
20
-26.253149999999998
10
31.017399999999995
20
-26.999999999999993
10
32.435800000000008
20
-26.999999999999993
10
32.933699999999995
20
-26.253149999999998
10
33.431599999999989
20
-26.999999999999989
10
34.845800000000011
20
-26.999999999999993
10
35.345800000000011
20
-26.249999999999993
10
35.349999999999994
20
-26.256299999999975
10
35.349999999999994
20
-22.743700000000029
10
35.345800000000011
20
-22.75
10
34.845799999999997
20
-22
10
33.431600000000003
20
-22
10
32.933699999999995
20
-22.746850000000009
10
32.4358
20
-22
10
31.017400000000002
20
-22
10
30.519499999999997
20
-22.746849999999998
10
30.021600000000003
20
-22
10
28.603200000000001
20
-22
10
28.1053
20
-22.746850000000009
10
27.607400000000002
20
-22
10
26.189000000000007
20
-22
10
25.691100000000006
20
-22.746850000000009
10
25.193200000000001
20
-22
10
23.774800000000003
20
-22
10
23.276900000000001
20
-22.746849999999998
10
22.779000000000003
20
-22
10
21.360600000000005
20
-22.000000000000007
10
20.862700000000004
20
-22.746850000000002
10
20.364800000000006
20
-22
10
18.946400000000008
20
-22.000000000000007
10
18.448499999999996
20
-22.746849999999998
10
17.950600000000001
20
-22
10
16.532200000000003
20
-22.000000000000007
10
16.034300000000002
20
-22.746850000000009
10
15.536399999999999
20
-22
10
14.118000000000006
20
-22.000000000000007
10
13.620100000000001
20
-22.746850000000013
10
13.122200000000001
20
-22
10
11.703800000000006
20
-22.000000000000007
10
11.205899999999998
20
-22.746850000000002
10
10.708000000000002
20
-22
10
9.2896000000000019
20
-22.000000000000007
10
8.7916999999999952
20
-22.746849999999998
10
8.2938000000000009
20
-22
10
6.8754000000000035
20
-22.000000000000007
10
6.3775000000000004
20
-22.746850000000009
10
5.879599999999999
20
-22
10
4.4612000000000052
20
-22.000000000000007
10
3.963299999999998
20
-22.746850000000002
10
3.4654000000000007
20
-22
10
2.0470000000000139
20
-22.000000000000007
10
1.5490999999999977
20
-22.746849999999998
10
1.0512000000000021
20
-22
10
-0.36719999999998421
20
-22.000000000000007
10
-0.86510000000000076
20
-22.746850000000013
10
-1.3630000000000031
20
-22
10
-2.7813999999999823
20
-22.000000000000007
10
-3.2793000000000005
20
-22.746850000000009
10
-3.7772000000000014
20
-22
10
-5.1955999999999882
20
-22.000000000000007
10
-5.6934999999999993
20
-22.746850000000009
10
-6.1913999999999998
20
-22
10
-7.6097999999999804
20
-22.000000000000007
10
-8.1076999999999941
20
-22.746850000000009
10
-8.6055999999999973
20
-22
10
-10.023999999999994
20
-22.000000000000007
10
-10.521899999999997
20
-22.746849999999998
10
-11.019799999999996
20
-22
10
-12.438199999999984
20
-22.000000000000007
10
-12.936100000000001
20
-22.746850000000009
10
-13.434000000000001
20
-22
10
-14.848199999999977
20
-22.000000000000007
10
-15.348199999999999
20
-22.75
0
CIRCLE
5
115
100
AcDbEntity
8
0
100
AcDbCircle
10
38.999999999999986
20
24.500000000000025
30
0
40
3.0999999999999956
210
0
220
0
230
1
0
CIRCLE
5
116
100
AcDbEntity
8
0
100
AcDbCircle
10
-19.000000000000025
20
24.500000000000011
30
0
40
3.0999999999999988
210
0
220
0
230
1
0
CIRCLE
5
117
100
AcDbEntity
8
0
100
AcDbCircle
10
-19.000000000000014
20
-24.5
30
0
40
3.0999999999999988
210
0
220
0
230
1
0
CIRCLE
5
118
100
AcDbEntity
8
0
100
AcDbCircle
10
38.999999999999993
20
-24.499999999999993
30
0
40
3.1000000000000023
210
0
220
0
230
1
0
LWPOLYLINE
5
119
100
AcDbEntity
8
0
100
AcDbPolyline
90
4
70
1
43
0.0
10
17.900000000000009
20
18
10
17.900000000000009
20
24.499999999999996
10
3.1000000000000054
20
24.499999999999996
10
3.100000000000005
20
18
0
ENDSEC
0
SECTION
2
OBJECTS
0
DICTIONARY
5
C
100
AcDbDictionary
3
ACAD_GROUP
350
D
3
ACAD_MLINESTYLE
350
17
0
DICTIONARY
5
D
100
AcDbDictionary
0
DICTIONARY
5
1A
330
C
100
AcDbDictionary
0
DICTIONARY
5
17
100
AcDbDictionary
0
ENDSEC
0
EOF
